Coordinates
version=1
nRows=12
nColumns=24
inDegrees=yes

Units are S.I. units (second, meters, Newtons, ...)
Angles are in degrees.

endheader
time	pelvis_tilt	pelvis_list	pelvis_rotation	pelvis_tx	pelvis_ty	pelvis_tz	hip_flexion_r	hip_adduction_r	hip_rotation_r	knee_angle_r	ankle_angle_r	subtalar_angle_r	mtp_angle_r	hip_flexion_l	hip_adduction_l	hip_rotation_l	knee_angle_l	ankle_angle_l	subtalar_angle_l	mtp_angle_l	lumbar_extension	lumbar_bending	lumbar_rotation
      3.71500000	     -0.05709037	      6.93030981	     -2.61760395	     -0.42393986	      0.93579698	      0.23192418	     22.95686214	     -5.16866555	      1.87473409	    -70.95246589	      8.82358759	    -14.20213019	      0.00000000	     14.18943812	     12.89435384	      2.55445304	    -23.75250903	     17.11845659	    -14.62431183	      0.00000000	     -9.91105512	     -9.40978234	     -4.99955238
      3.72000000	      0.02544238	      6.65588377	     -2.39162316	     -0.41741493	      0.93732479	      0.23147816	     23.40728164	     -4.87540462	      1.78277099	    -70.12017777	      9.36403007	    -13.74654011	      0.00000000	     13.28581170	     12.74247183	      3.17271256	    -23.17800279	     17.09707176	    -14.91526698	      0.00000000	    -10.05200067	     -9.01476777	     -5.23042902
      3.72500000	      0.08762772	      6.38179599	     -2.15081260	     -0.41091804	      0.93874447	      0.23103232	     23.84733779	     -4.58831855	      1.66958132	    -69.19894734	      9.86277711	    -13.38330911	      0.00000000	     12.41867958	     12.58144610	      3.78783368	    -22.62077098	     17.05834343	    -15.23288399	      0.00000000	    -10.17240291	     -8.61930893	     -5.46864560
      3.73000000	      0.14529687	      6.11467906	     -1.90426337	     -0.40442805	      0.94008551	      0.23055957	     24.26736864	     -4.31902057	      1.54348054	    -68.19968197	     10.26921506	    -13.09846716	      0.00000000	     11.55514459	     12.42431700	      4.43104603	    -22.05329582	     16.99923590	    -15.59209268	      0.00000000	    -10.28377139	     -8.22677066	     -5.71746456
      3.73500000	      0.19172879	      5.85714512	     -1.64653216	     -0.39796844	      0.94132338	      0.23011065	     24.67327916	     -4.06353950	      1.40692353	    -67.12365282	     10.61281786	    -12.89533140	      0.00000000	     10.71215637	     12.26699532	      5.07838748	    -21.48916341	     16.93046735	    -15.98080945	      0.00000000	    -10.38477524	     -7.85593810	     -5.97862844
      3.74000000	      0.23717774	      5.61632413	     -1.38530673	     -0.39151245	      0.94247432	      0.22962477	     25.05357487	     -3.83675664	      1.26553105	    -65.97180081	     10.89426158	    -12.76736901	      0.00000000	      9.87354928	     12.12272460	      5.74631609	    -20.92303620	     16.83766782	    -16.40249003	      0.00000000	    -10.47894542	     -7.48733304	     -6.26544983
      3.74500000	      0.26161429	      5.38259354	     -1.11758311	     -0.38507398	      0.94350410	      0.22914844	     25.42673773	     -3.62208948	      1.11734266	    -64.74143895	     11.13600681	    -12.70886776	      0.00000000	      9.07318339	     11.97369166	      6.38459403	    -20.37397434	     16.74938356	    -16.82662924	      0.00000000	    -10.54613461	     -7.13089599	     -6.54018500
      3.75000000	      0.28275334	      5.16301103	     -0.83730906	     -0.37864839	      0.94444269	      0.22867824	     25.77303736	     -3.42980498	      0.96226371	    -63.43705767	     11.33035041	    -12.71075138	      0.00000000	      8.27974985	     11.83101217	      7.03633850	    -19.82266695	     16.64637654	    -17.27676341	      0.00000000	    -10.61214621	     -6.79418343	     -6.83732868
      3.75500000	      0.30865085	      4.96502921	     -0.54837110	     -0.37223265	      0.94531688	      0.22824644	     26.08098064	     -3.26121026	      0.81697867	    -62.05555445	     11.47907280	    -12.74857831	      0.00000000	      7.48756799	     11.70072236	      7.70589143	    -19.27646456	     16.50753920	    -17.75494190	      0.00000000	    -10.68155438	     -6.49438310	     -7.15867241
      3.76000000	      0.32036114	      4.77719768	     -0.26087222	     -0.36583354	      0.94606218	      0.22778229	     26.37854602	     -3.11542488	      0.66612277	    -60.60592198	     11.60257781	    -12.83440977	      0.00000000	      6.72103051	     11.57307399	      8.35654863	    -18.73919455	     16.38574965	    -18.23202376	      0.00000000	    -10.73389319	     -6.19489507	     -7.47372163
      3.76500000	      0.32924860	      4.60489923	      0.03050977	     -0.35943590	      0.94671614	      0.22732237	     26.64700313	     -2.99361675	      0.51748237	    -59.08413084	     11.69689680	    -12.94326614	      0.00000000	      5.96384841	     11.45277392	      9.00701867	    -18.20896803	     16.25968834	    -18.72171931	      0.00000000	    -10.77808448	     -5.91307331	     -7.79280637
      3.77000000	      0.34812531	      4.44967638	      0.31385066	     -0.35303406	      0.94728897	      0.22686290	     26.87302662	     -2.89856092	      0.37716254	    -57.49491176	     11.80613981	    -13.02018014	      0.00000000	      5.19755244	     11.34368969	      9.65243737	    -17.67272615	     16.10266146	    -19.27116125	      0.00000000	    -10.83528731	     -5.65311383	     -8.10247951
